<svg width="62" height="63" viewBox="0 0 62 63" fill="none" xmlns="http://www.w3.org/2000/svg">
<g filter="url(#filter0_d_11_463)">
<rect x="6" y="6.5" width="44" height="44" rx="22" fill="#EA7552"/>
</g>
<path d="M34.9975 36C26.4659 36.0121 19.9909 29.4595 20 21.0025C20 20.4502 20.4477 20 21 20H23.6394C24.1349 20 24.5559 20.3641 24.6287 20.8543C24.8031 22.0292 25.1452 23.173 25.6445 24.2507L25.7472 24.4725C25.8901 24.7809 25.7933 25.1473 25.5167 25.3449C24.6993 25.9286 24.3869 27.1036 25.0237 28.0204C25.8228 29.1708 26.8301 30.1779 27.9803 30.9766C28.897 31.6132 30.0718 31.3009 30.6555 30.4836C30.8532 30.2069 31.2198 30.11 31.5284 30.2529L31.7492 30.3552C32.827 30.8545 33.9708 31.1966 35.1458 31.371C35.636 31.4437 36 31.8647 36 32.3603V35C36 35.5523 35.5512 36 34.9989 36L34.9975 36Z" fill="white"/>
<defs>
<filter id="filter0_d_11_463" x="0" y="0.5" width="62" height="62" filterUnits="userSpaceOnUse" color-interpolation-filters="sRGB">
<feFlood flood-opacity="0" result="BackgroundImageFix"/>
<feColorMatrix in="SourceAlpha" type="matrix" values="0 0 0 0 0 0 0 0 0 0 0 0 0 0 0 0 0 0 127 0" result="hardAlpha"/>
<feOffset dx="3" dy="3"/>
<feGaussianBlur stdDeviation="4.5"/>
<feComposite in2="hardAlpha" operator="out"/>
<feColorMatrix type="matrix" values="0 0 0 0 0.2 0 0 0 0 0.2 0 0 0 0 0.2 0 0 0 0.2 0"/>
<feBlend mode="normal" in2="BackgroundImageFix" result="effect1_dropShadow_11_463"/>
<feBlend mode="normal" in="SourceGraphic" in2="effect1_dropShadow_11_463" result="shape"/>
</filter>
</defs>
</svg>
