<svg width="61" height="61" viewBox="0 0 61 61" fill="none" xmlns="http://www.w3.org/2000/svg">
<path d="M1.25103 0.166798C0.750635 0.381252 0.143018 1.10801 0.0596191 1.57266C0.023877 1.78711 0.0119629 13.4748 0.023877 27.5334L0.0596191 53.101L0.405127 53.5418C0.869775 54.1613 1.53696 54.4473 2.53774 54.4473H3.33599V55.2217C3.33599 56.0676 3.55044 56.7229 3.96743 57.1637C4.39634 57.6164 4.64653 57.7117 5.7188 57.7832L6.73149 57.8428L6.79106 58.7959C6.86255 59.9277 7.11274 60.3686 7.89907 60.7498C8.41138 61 8.45903 61 22.7678 61H37.1124L41.4848 56.6156L45.8692 52.2432V48.9311V45.6309H46.9176C47.7874 45.6309 48.0137 45.5951 48.1686 45.4164C48.4545 45.0947 48.4307 44.4037 48.1209 44.1297C47.8827 43.9152 47.5848 43.9033 42.2116 43.8676L36.5643 43.8318L36.6358 43.5697C36.7668 43.1289 37.3387 42.4975 37.9463 42.1162L38.5182 41.7588H45.0352H51.5522L52.136 42.1162C52.6364 42.426 53.4942 43.4387 53.4942 43.7246C53.4942 43.7723 53.1487 43.8438 52.7317 43.8676C51.7786 43.9271 51.4688 44.1535 51.4688 44.7969C51.4688 45.5355 51.6833 45.6309 53.3989 45.6309C55.2694 45.6309 55.4362 45.5355 55.4124 44.5467C55.3766 42.7357 54.3043 41.175 52.553 40.341C51.7786 39.9836 51.7309 39.9717 49.7174 39.9359L47.6563 39.8883V30.0711V20.2539H50.9922C52.827 20.2539 54.3282 20.2777 54.3282 20.3016C54.3282 20.3254 53.4227 22.8512 52.3028 25.9131C50.0987 31.9773 50.0868 32.0131 50.5038 33.3475C51.4331 36.3379 54.6499 37.851 57.6641 36.7072C59.3678 36.052 60.726 34.2529 60.9524 32.3467C61.0358 31.7152 60.9524 31.477 58.7245 25.3531C57.2233 21.207 56.3297 18.9076 56.151 18.7289C55.9008 18.4787 55.8174 18.4668 53.5657 18.4668H51.2543L51.1709 17.9783C51.1233 17.7162 50.8731 17.0729 50.6229 16.5486C49.7293 14.7854 48.2043 13.6178 46.2028 13.177L45.8811 13.1055L45.8454 10.5082L45.8096 7.89902L45.4641 7.4582C44.9995 6.83867 44.3323 6.55273 43.3553 6.55273H42.569L42.5094 5.67109C42.4022 4.09844 41.7469 3.45508 40.1385 3.35977L39.1973 3.3002V2.85938C39.1973 2.10879 38.9709 1.19141 38.7088 0.810158C38.5659 0.607616 38.2323 0.345509 37.9583 0.226368C37.4936 0.0119133 36.7788 0 19.5391 0.0119133C4.98013 0.0119133 1.53696 0.0357437 1.25103 0.166798ZM37.2911 2.01348C37.3506 2.14453 37.4102 2.49004 37.4102 2.78789V3.33594L21.1118 3.35977L4.82524 3.39551L4.38442 3.66953C4.14614 3.82441 3.82446 4.1461 3.66958 4.38438L3.39556 4.8252V9.97207C3.39556 15.6193 3.37173 15.4049 4.1104 15.5598C4.37251 15.6074 4.56313 15.5598 4.80142 15.3691L5.1231 15.1189V10.258C5.1231 6.64805 5.15884 5.37324 5.26606 5.26602C5.4686 5.06348 40.4006 5.06348 40.6032 5.26602C40.6866 5.34941 40.7461 5.67109 40.7461 5.98086V6.55273L24.4477 6.57656L8.14927 6.6123L7.66079 6.93399C6.70767 7.56543 6.79106 5.20645 6.79106 32.0369V56.008L5.99282 55.9723L5.18267 55.9365L5.1231 37.3148C5.06353 19.0506 5.06353 18.6813 4.83716 18.5145C4.44399 18.2404 3.8602 18.3 3.58618 18.6574L3.33599 18.9791V35.8256V52.6721L2.59731 52.6363L1.84673 52.6006L1.81099 27.3428C1.79907 13.451 1.81099 2.01348 1.84673 1.93008C1.88247 1.82285 5.54009 1.78711 19.5272 1.78711C36.8383 1.78711 37.16 1.78711 37.2911 2.01348ZM44.0583 10.7465L44.0821 13.0816L43.403 13.2842C41.2227 13.9156 39.5428 15.5955 38.9948 17.6805L38.7803 18.4668H36.4928C34.2887 18.4668 34.1934 18.4787 33.9075 18.7289C33.5262 19.0863 29.0704 31.2982 29.0704 32.0012C29.0823 34.3721 31.1315 36.6477 33.6334 37.0527C36.5881 37.5174 39.5309 35.2537 39.7454 32.3348L39.8049 31.5127L37.851 26.1514C36.7788 23.1967 35.8614 20.6709 35.8137 20.516L35.7303 20.2539H39.0663H42.4141V30.083V39.9121H40.5674C39.0067 39.9121 38.6016 39.9479 37.9821 40.1623C36.2069 40.758 34.9678 42.2115 34.67 44.0463C34.5508 44.785 34.5985 45.0947 34.8844 45.4164C35.0512 45.6189 35.4325 45.6309 39.5786 45.6309H44.0821V48.252V50.873H40.9606C39.1735 50.873 37.6366 50.9326 37.3864 50.9922C36.8145 51.159 36.2307 51.6475 36.0282 52.1479C35.8971 52.4457 35.8614 53.3273 35.8614 55.877V59.2129L22.2555 59.1891L8.63774 59.1533L8.602 33.8955C8.59009 20.0037 8.602 8.56621 8.63774 8.48281C8.67349 8.36367 12.2834 8.33984 26.354 8.36367L44.0225 8.39941L44.0583 10.7465ZM46.9772 15.3096C48.0733 15.8576 49.0145 16.9775 49.3838 18.1928L49.4553 18.4668H45.0471C41.592 18.4668 40.627 18.4311 40.627 18.3119C40.627 18.0617 41.2108 16.9061 41.5325 16.5129C42.0209 15.941 42.9741 15.2738 43.5817 15.0713C43.951 14.9521 44.4991 14.9045 45.2139 14.9283C46.1075 14.9641 46.3934 15.0236 46.9772 15.3096ZM45.8692 30.083V39.9121H45.0352H44.2012V30.083V20.2539H45.0352H45.8692V30.083ZM36.0639 26.485L37.6247 30.7979L36.0282 30.8336C35.1465 30.8455 33.7168 30.8455 32.8352 30.8336L31.2506 30.7979L32.8114 26.485C33.6692 24.1021 34.3959 22.1602 34.4317 22.1602C34.4674 22.1602 35.1942 24.1021 36.0639 26.485ZM57.2948 26.6279L58.8079 30.7979L55.6625 30.8336C53.9231 30.8455 52.4934 30.8455 52.4696 30.8217C52.4458 30.7979 53.1368 28.8439 54.0065 26.4611C55.0549 23.5898 55.6149 22.1959 55.6864 22.3031C55.734 22.3984 56.4608 24.3404 57.2948 26.6279ZM37.8153 32.9066C37.3983 34.3006 35.9567 35.3133 34.4317 35.3133C33.5739 35.3133 32.6088 34.9439 32.037 34.4078C31.6557 34.0623 31.1553 33.2879 31.0362 32.9066L30.9647 32.6445H34.4317H37.8987L37.8153 32.9066ZM59.0938 32.6922C59.0938 32.9424 58.6172 33.7406 58.1883 34.1934C56.8897 35.5754 54.8881 35.6945 53.2916 34.4793C52.9104 34.1814 52.1836 33.0854 52.1836 32.7875C52.1836 32.6803 52.9581 32.6445 55.6387 32.6445C57.545 32.6445 59.0938 32.6684 59.0938 32.6922ZM40.2577 55.2574L37.7081 57.8547L37.6723 55.3527C37.6485 53.4346 37.6842 52.8389 37.7915 52.7555C37.8749 52.7078 39.0424 52.6602 40.3768 52.6602H42.7954L40.2577 55.2574Z" fill="#EF5DE9"/>
<path d="M13.8323 16.3937C13.5463 16.7631 13.5225 16.9061 13.725 17.335C13.8084 17.5256 14.011 17.6805 14.285 17.7639C14.5709 17.8353 17.3112 17.8711 22.3746 17.8473L30.0473 17.8115L30.2737 17.5256C30.5715 17.1682 30.5596 16.6201 30.2618 16.3223C30.0235 16.084 29.8686 16.084 22.053 16.084H14.0705L13.8323 16.3937Z" fill="#EF5DE9"/>
<path d="M13.8203 23.3158C13.5106 23.709 13.5701 24.2571 13.9514 24.5787C14.1897 24.7694 14.6305 24.7813 20.7424 24.7574C27.9028 24.7217 27.5573 24.7574 27.7121 24.0069C27.7598 23.7448 27.7121 23.5541 27.5215 23.3158L27.2713 22.9942H20.6709H14.0705L13.8203 23.3158Z" fill="#EF5DE9"/>
<path d="M13.9276 30.1307C13.725 30.2855 13.6536 30.4762 13.6536 30.7979C13.6536 31.1195 13.725 31.3102 13.9276 31.465C14.1897 31.6795 14.5114 31.6914 19.6583 31.6914C24.8051 31.6914 25.1268 31.6795 25.3889 31.465C25.7344 31.191 25.7583 30.5 25.4366 30.1426C25.2221 29.9043 25.1149 29.9043 19.7178 29.9043C14.5114 29.9043 14.1897 29.9162 13.9276 30.1307Z" fill="#EF5DE9"/>
<path d="M13.9514 37.017C13.5701 37.3387 13.5106 37.8867 13.8203 38.2799L14.0705 38.6016H19.7297C25.2221 38.6016 25.3889 38.5896 25.6153 38.3633C25.7582 38.2203 25.8535 37.9701 25.8535 37.708C25.8535 37.4459 25.7582 37.1957 25.6153 37.0527C25.3889 36.8264 25.2221 36.8145 19.7893 36.8145C14.6424 36.8145 14.1897 36.8264 13.9514 37.017Z" fill="#EF5DE9"/>
<path d="M14.1778 43.8557C13.7966 44.0106 13.7013 44.1655 13.7013 44.6897C13.7013 45.5594 13.2247 45.5117 21.9577 45.5117C28.8917 45.5117 29.7853 45.4879 29.952 45.3211C30.4167 44.8684 30.2856 44.0582 29.7138 43.8438C29.3087 43.6889 14.5829 43.7008 14.1778 43.8557Z" fill="#EF5DE9"/>
<path d="M13.9037 50.9684C13.582 51.3258 13.6416 52.0049 14.0228 52.3028C14.3326 52.541 14.3684 52.5529 21.9576 52.5172L29.5707 52.4815L29.7971 52.1955C30.0711 51.8619 30.083 51.3735 29.8328 51.016L29.6541 50.7539H21.8742C14.4875 50.7539 14.0824 50.7658 13.9037 50.9684Z" fill="#EF5DE9"/>
</svg>
